<svg width="250" height="50" viewBox="0 0 250 50" fill="none" xmlns="http://www.w3.org/2000/svg">
<path d="M218.335 0H31.6648C14.1795 0 0 11.195 0 25C0 38.805 14.1795 50 31.6648 50H218.335C235.821 50 250 38.805 250 25C250 11.195 235.827 0 218.335 0Z" fill="black"/>
<path d="M52.2911 8.56031V20.1803V27.2103V41.2003H62.6772V8.56031H52.2911Z" fill="white"/>
<path d="M37.9087 20.0695V8.44949H37.858H27.5226H27.4783V20.0695H12.4185V27.0995H27.4783V41.0895H27.5226H37.858H37.9087V27.0995H52.9685V23.5845V20.0695H37.9087Z" fill="white"/>
<path d="M61.3727 49.32V0.68H218.247C235.232 0.68 249.05 11.59 249.05 25C249.05 38.41 235.232 49.32 218.247 49.32H61.3727Z" fill="white"/>
<path d="M218.24 1.36C234.75 1.36 248.182 11.965 248.182 25C248.182 38.035 234.75 48.64 218.24 48.64H62.234V1.36H218.24ZM218.24 0H60.5114V50H218.246C235.732 50 249.911 38.805 249.911 25C249.905 11.195 235.732 0 218.24 0Z" fill="black"/>
<path d="M74.0323 34.325H87.7115V41.32H63.5956V8.68H87.7115V15.635H74.0323V21.075H87.7115V28.07H74.0323V34.325Z" fill="black"/>
<path d="M95.0894 8.68H105.475V34.325H120.681V41.32H95.0894V8.68Z" fill="black"/>
<path d="M144.252 8.68C148.286 8.68 151.655 9.865 154.366 12.235C157.07 14.605 158.444 17.24 158.476 20.14C158.476 22.085 158.014 23.84 157.095 25.405C156.177 26.975 154.974 28.235 153.479 29.195C151.985 30.155 150.345 30.885 148.559 31.39C146.773 31.895 144.955 32.145 143.119 32.145H137.558V41.315H126.83V8.68H137.508H144.252ZM141.548 24.96C143.157 24.96 144.582 24.49 145.829 23.54C147.077 22.595 147.697 21.5 147.697 20.255C147.697 19.22 147.317 18.345 146.564 17.63C145.81 16.92 145.012 16.44 144.176 16.19C143.34 15.945 142.53 15.82 141.738 15.82H137.508V24.95H141.548V24.96Z" fill="black"/>
<path d="M175.062 34.325H188.741V41.32H164.625V8.68H188.741V15.635H175.062V21.075H188.741V28.07H175.062V34.325Z" fill="black"/>
<path d="M220.83 41.32L206.759 28.225V41.32H196.125V8.68H213.351C216.993 8.68 220.108 9.695 222.705 11.73C225.295 13.765 226.593 16.22 226.593 19.095C226.593 20.935 226.017 22.64 224.871 24.205C223.725 25.77 222.148 27.035 220.146 27.995L219.849 28.15L234.611 41.32H220.83ZM206.752 22.475H211.92C213.104 22.475 214.098 22.145 214.922 21.485C215.739 20.825 216.15 20.03 216.15 19.095C216.15 18.16 215.739 17.375 214.922 16.725C214.098 16.08 213.104 15.755 211.92 15.755H206.752V22.475Z" fill="black"/>
</svg>
